<?xml version="1.0" ?><!-- Uploaded to: SVG Repo, www.svgrepo.com, Generator: SVG Repo Mixer Tools -->
<svg width="800px" height="800px" viewBox="0 0 32 32" data-name="Layer 1" id="Layer_1" xmlns="http://www.w3.org/2000/svg"><defs><style>.cls-1{fill:none;stroke:#231f20;stroke-linejoin:round;}</style></defs><title/><path class="cls-1" d="M26.55,27.14h0a164,164,0,0,1-21,0H5.45a1,1,0,0,1-1-.93V21.4a7,7,0,0,1,7.07-6.9h8.86a7,7,0,0,1,7.07,6.9v4.81A1,1,0,0,1,26.55,27.14Z"/><path class="cls-1" d="M22.5,11.91V14.5H9.5V11.9A70.57,70.57,0,0,0,22.5,11.91Z"/><path class="cls-1" d="M24.5,7.5v4.2h-.07l-1.86.2a71.55,71.55,0,0,1-13.09,0c-.62-.05-1.24-.12-1.86-.19H7.5V7.5h0c.33,1.28,4,1.44,8.47,1.44s8.13-.16,8.46-1.44Z"/><path class="cls-1" d="M24.49,7.54c-.33,1.28-4,1.4-8.49,1.4S7.86,8.78,7.53,7.5h0v0c0-1.76,3.8-2,8.5-2s8.5.22,8.5,2Z"/></svg>